<?xml version="1.0" encoding="UTF-8"?>
<svg version="1.1" xmlns="http://www.w3.org/2000/svg" width="118" height="100">
<path d="M0 0 C38.94 0 77.88 0 118 0 C118 33 118 66 118 100 C79.06 100 40.12 100 0 100 C0 67 0 34 0 0 Z " fill="#FD6B00" transform="translate(0,0)"/>
<path d="M0 0 C8.27241737 4.7176916 15.01814988 10.35150132 18.3203125 19.61328125 C20.77038655 29.60337193 19.70345927 38.65305528 14.625 47.625 C9.60288161 53.97650267 3.30425868 59.71108044 -4.5 62.3125 C-13.84204279 62.91489388 -22.28578028 63.3760601 -30.5 58.3125 C-31.36625 57.920625 -32.2325 57.52875 -33.125 57.125 C-39.83577479 52.00361924 -44.44641865 44.4534832 -46.5 36.3125 C-47.68359555 26.92443532 -45.92876222 18.26818401 -40.375 10.5625 C-36.66421293 6.13147578 -32.5128416 3.13052987 -27.5 0.3125 C-26.448125 -0.30625 -25.39625 -0.925 -24.3125 -1.5625 C-15.89009474 -4.04779991 -7.94630956 -3.83956178 0 0 Z " fill="#F76901" transform="translate(54.5,14.6875)"/>
<path d="M0 0 C8.27241737 4.7176916 15.01814988 10.35150132 18.3203125 19.61328125 C20.77038655 29.60337193 19.70345927 38.65305528 14.625 47.625 C9.60288161 53.97650267 3.30425868 59.71108044 -4.5 62.3125 C-13.84204279 62.91489388 -22.28578028 63.3760601 -30.5 58.3125 C-31.36625 57.920625 -32.2325 57.52875 -33.125 57.125 C-39.83577479 52.00361924 -44.44641865 44.4534832 -46.5 36.3125 C-47.68359555 26.92443532 -45.92876222 18.26818401 -40.375 10.5625 C-36.66421293 6.13147578 -32.5128416 3.13052987 -27.5 0.3125 C-26.448125 -0.30625 -25.39625 -0.925 -24.3125 -1.5625 C-15.89009474 -4.04779991 -7.94630956 -3.83956178 0 0 Z M-38.296875 11.59375 C-44.03293575 20.0066391 -44.61437426 28.33731899 -43.5 38.3125 C-42.36068193 42.10392362 -40.75698725 45.07832553 -38.5 48.3125 C-37.819375 49.385 -37.13875 50.4575 -36.4375 51.5625 C-31.65756936 56.75807678 -24.88301524 59.81521936 -17.9921875 60.828125 C-8.97441387 61.10559496 -1.41622058 59.26223235 6.3125 54.625 C14.20442309 46.28210987 16.96495508 38.28228109 16.83203125 26.875 C16.36394569 21.85271733 14.79142828 17.76652123 12.5 13.3125 C12.005 12.3225 12.005 12.3225 11.5 11.3125 C10.84 11.3125 10.18 11.3125 9.5 11.3125 C9.314375 10.755625 9.12875 10.19875 8.9375 9.625 C5.37628683 3.89609186 -0.61730546 1.47418765 -6.890625 -0.1796875 C-19.03702022 -2.54350693 -30.55735597 1.76792584 -38.296875 11.59375 Z " fill="#2F2C26" transform="translate(54.5,14.6875)"/>
<path d="M0 0 C2.875 1.625 2.875 1.625 5 4 C5.5625 7 5.5625 7 5 10 C3.125 12.375 3.125 12.375 1 14 C0.34 14 -0.32 14 -1 14 C-0.98952637 15.1645874 -0.97905273 16.3291748 -0.96826172 17.52905273 C-0.93183167 21.88448973 -0.90901641 26.23991349 -0.89013672 30.59545898 C-0.88013127 32.47406282 -0.86652267 34.35265129 -0.84912109 36.23120117 C-0.8246312 38.94453748 -0.8134621 41.65766638 -0.8046875 44.37109375 C-0.79436493 45.19959335 -0.78404236 46.02809296 -0.77340698 46.88169861 C-0.77199303 54.37114804 -1.53060189 61.69724627 -5.875 68 C-6.36742188 68.7425 -6.85984375 69.485 -7.3671875 70.25 C-9.21789381 72.23353212 -10.35130968 72.63308186 -13 73 C-14.1640625 71.30859375 -14.1640625 71.30859375 -15 69 C-14.0234375 66.59765625 -14.0234375 66.59765625 -12.375 64.0625 C-11.84648438 63.22847656 -11.31796875 62.39445312 -10.7734375 61.53515625 C-9 59 -9 59 -6.92724609 56.91894531 C-4.24341158 52.85409537 -4.39753107 49.5346933 -4.390625 44.76171875 C-4.37408875 43.88095169 -4.35755249 43.00018463 -4.34051514 42.09272766 C-4.2920893 39.29091379 -4.27067647 36.48964246 -4.25 33.6875 C-4.22183575 31.78317591 -4.19190768 29.87887703 -4.16015625 27.97460938 C-4.08633186 23.31645093 -4.03672421 18.6585927 -4 14 C-6.475 13.01 -6.475 13.01 -9 12 C-10.45454545 4.72727273 -10.45454545 4.72727273 -8.4375 1.5 C-5.28244346 -0.44157326 -3.65067938 -0.59602929 0 0 Z " fill="#342E27" transform="translate(91,7)"/>
<path d="M0 0 C3.43522779 0.86054191 4.91964542 2.67705308 6.93359375 5.484375 C7.99609375 8.421875 7.99609375 8.421875 7.93359375 11.484375 C4.92060674 16.99086851 4.92060674 16.99086851 1.93359375 18.484375 C0.05859375 18.6171875 0.05859375 18.6171875 -2.06640625 18.609375 C-3.11828125 18.61324219 -3.11828125 18.61324219 -4.19140625 18.6171875 C-6.06640625 18.484375 -6.06640625 18.484375 -8.06640625 17.484375 C-8.06640625 16.824375 -8.06640625 16.164375 -8.06640625 15.484375 C-8.72640625 15.484375 -9.38640625 15.484375 -10.06640625 15.484375 C-11.68229004 12.25260743 -11.64092032 8.97822217 -11.06640625 5.484375 C-8.05428545 0.9661938 -5.26370891 -0.35821081 0 0 Z " fill="#F86A01" transform="translate(103.06640625,76.515625)"/>
<path d="M0 0 C0.99 0 1.98 0 3 0 C3.04976354 5.3893909 3.08589047 10.77864544 3.10986328 16.16821289 C3.11986648 17.99831475 3.13347335 19.82840084 3.15087891 21.65844727 C3.17537891 24.30228588 3.18654013 26.94591157 3.1953125 29.58984375 C3.20563507 30.39646957 3.21595764 31.2030954 3.22659302 32.03416443 C3.22803227 39.4669178 2.43356421 46.74923327 -1.875 53 C-2.36742188 53.7425 -2.85984375 54.485 -3.3671875 55.25 C-5.21789381 57.23353212 -6.35130968 57.63308186 -9 58 C-10.1640625 56.30859375 -10.1640625 56.30859375 -11 54 C-10.0234375 51.59765625 -10.0234375 51.59765625 -8.375 49.0625 C-7.84648438 48.22847656 -7.31796875 47.39445312 -6.7734375 46.53515625 C-5 44 -5 44 -2.92724609 41.90527344 C-0.26953191 37.89883832 -0.39761961 34.69010298 -0.390625 29.98046875 C-0.37408875 29.12189774 -0.35755249 28.26332672 -0.34051514 27.3787384 C-0.29209967 24.64825237 -0.27067894 21.918323 -0.25 19.1875 C-0.22183486 17.3313523 -0.19190666 15.47523046 -0.16015625 13.61914062 C-0.08634262 9.07947293 -0.03672872 4.54011307 0 0 Z " fill="#443223" transform="translate(87,22)"/>
<path d="M0 0 C2.97 0 5.94 0 9 0 C9 6.93 9 13.86 9 21 C6.03 21 3.06 21 0 21 C0 14.07 0 7.14 0 0 Z " fill="#2A2A27" transform="translate(102,7)"/>
<path d="M0 0 C2.4375 1.625 2.4375 1.625 4 4 C4.61195145 7.6717087 4.48706506 9.28813568 2.375 12.375 C-0.71186432 14.48706506 -2.3282913 14.61195145 -6 14 C-8.375 12.4375 -8.375 12.4375 -10 10 C-10.42519574 6.53769185 -10.63902633 4.1652833 -8.9375 1.0625 C-5.8347167 -0.63902633 -3.46230815 -0.42519574 0 0 Z " fill="#14242C" transform="translate(44,38)"/>
<path d="M0 0 C2 2 2 2 2.3125 4.9375 C2 8 2 8 0.9375 9.875 C-2.06732099 11.61973477 -4.60810131 11.30835443 -8 11 C-10 9 -10 9 -10.3125 5.5625 C-10 2 -10 2 -8.9375 0 C-5.80557344 -1.61647822 -3.32814714 -0.78665296 0 0 Z " fill="#2D2C28" transform="translate(24,84)"/>
<path d="M0 0 C3.0625 0.3125 3.0625 0.3125 4.9375 1.4375 C6.59104531 4.19340884 6.45615568 6.16325452 6.0625 9.3125 C4.9375 11.1875 4.9375 11.1875 3.0625 12.3125 C-0.08235925 12.70560741 -2.07031671 12.78805213 -4.875 11.25 C-6.5865104 8.12901045 -5.73041991 5.66716116 -4.9375 2.3125 C-2.9375 0.3125 -2.9375 0.3125 0 0 Z " fill="#212729" transform="translate(61.9375,82.6875)"/>
<path d="M0 0 C1.9375 1.5625 1.9375 1.5625 3 4 C2.8125 7.6875 2.8125 7.6875 2 11 C-0.77100394 12.38550197 -2.9334706 12.1877467 -6 12 C-6.99 11.34 -7.98 10.68 -9 10 C-9.37331109 6.57798172 -9.63763183 4.09814371 -7.875 1.0625 C-5.07837528 -0.52225401 -3.1506804 -0.45947423 0 0 Z " fill="#252929" transform="translate(44,83)"/>
<path d="M0 0 C3.43522779 0.86054191 4.91964542 2.67705308 6.93359375 5.484375 C7.99609375 8.421875 7.99609375 8.421875 7.93359375 11.484375 C4.92060674 16.99086851 4.92060674 16.99086851 1.93359375 18.484375 C0.05859375 18.6171875 0.05859375 18.6171875 -2.06640625 18.609375 C-3.11828125 18.61324219 -3.11828125 18.61324219 -4.19140625 18.6171875 C-6.06640625 18.484375 -6.06640625 18.484375 -8.06640625 17.484375 C-8.06640625 16.824375 -8.06640625 16.164375 -8.06640625 15.484375 C-8.72640625 15.484375 -9.38640625 15.484375 -10.06640625 15.484375 C-11.68229004 12.25260743 -11.64092032 8.97822217 -11.06640625 5.484375 C-8.05428545 0.9661938 -5.26370891 -0.35821081 0 0 Z M-8.06640625 4.484375 C-9.49905531 9.97244326 -9.49905531 9.97244326 -7.56640625 14.984375 C-4.17821937 17.01728713 -1.95116931 16.97879939 1.93359375 16.484375 C4.01692708 15.56770833 4.01692708 15.56770833 4.93359375 13.484375 C5.4338961 9.55342793 5.53320795 7.3837963 3.30859375 4.046875 C-0.90773695 1.27297323 -3.97834943 1.75900379 -8.06640625 4.484375 Z " fill="#292A28" transform="translate(103.06640625,76.515625)"/>
<path d="M0 0 C8.07419701 -0.57672836 12.56637806 1.71091871 19.1875 6.125 C23.52939816 9.9910737 26.57555669 15.6635532 27.30859375 21.42578125 C27.3125 23.625 27.3125 23.625 27 27 C26.34 27 25.68 27 25 27 C24.92523438 26.38253906 24.85046875 25.76507813 24.7734375 25.12890625 C23.72295621 18.36257088 21.81232656 13.00007646 17 8 C11.79584293 4.48483625 6.07350149 2.45235905 0 1 C0 0.67 0 0.34 0 0 Z " fill="#2E2B27" transform="translate(40,19)"/>
<path d="M0 0 C1.65 0 3.3 0 5 0 C5 5.61 5 11.22 5 17 C3.35 17 1.7 17 0 17 C0 11.39 0 5.78 0 0 Z " fill="#D76008" transform="translate(104,9)"/>
<path d="M0 0 C5 5 5 5 7.1875 7.5 C15.92113098 15.26322754 24.82787474 15.84752683 36 16 C35.67 16.66 35.34 17.32 35 18 C26.13285327 18.42057613 18.82429374 18.65691006 11 14 C10.113125 13.566875 9.22625 13.13375 8.3125 12.6875 C5.02669233 10.28974845 2.1657988 7.46081252 0 4 C0 2.68 0 1.36 0 0 Z " fill="#272928" transform="translate(13,59)"/>
<path d="M0 0 C0.66 0 1.32 0 2 0 C2.09796875 0.556875 2.1959375 1.11375 2.296875 1.6875 C3.8075304 9.39705168 5.55914812 15.59246592 12.125 20.375 C16.84660414 23.26609871 21.54796916 24.3398376 27 25 C27 25.66 27 26.32 27 27 C19.78233806 27.6142691 14.48159794 25.20784259 8.4375 21.375 C7.963125 20.92125 7.48875 20.4675 7 20 C7 19.34 7 18.68 7 18 C6.34 18 5.68 18 5 18 C1.11775597 11.48784873 -0.14825998 7.70951873 0 0 Z " fill="#2A2A27" transform="translate(15,44)"/>
<path d="M0 0 C2.4375 0.9375 2.4375 0.9375 3.8125 3.3125 C4.4375 5.9375 4.4375 5.9375 3.4375 8.9375 C-3.3125 10.0625 -3.3125 10.0625 -5.5625 8.9375 C-5.75 5.5625 -5.75 5.5625 -5.5625 1.9375 C-2.5625 -0.0625 -2.5625 -0.0625 0 0 Z " fill="#F96A01" transform="translate(89.5625,9.0625)"/>
<path d="M0 0 C0.99 0.33 1.98 0.66 3 1 C2.51144531 1.8146875 2.02289062 2.629375 1.51953125 3.46875 C-0.30876451 7.71754014 -0.41256524 10.94503019 -0.3125 15.5 C-0.31572266 16.23347656 -0.31894531 16.96695313 -0.32226562 17.72265625 C-0.2783692 22.18412941 0.33204152 25.80020017 2 30 C1.34 30.66 0.68 31.32 0 32 C-4.91956509 21.87535935 -5.23760112 13.56830488 -1.75390625 2.8984375 C-1 1 -1 1 0 0 Z " fill="#3F3123" transform="translate(12,29)"/>
<path d="M0 0 C6.66434471 0.16623082 11.12772941 1.33021339 16 6 C20.10041778 10.74785217 20.73082749 14.94361846 21 21 C20.34 21 19.68 21 19 21 C18.7525 19.80375 18.505 18.6075 18.25 17.375 C17.01463886 12.58586022 15.44121876 8.60188988 11.13671875 5.77734375 C7.52179019 3.87797451 4.08509727 2.51063716 0 2 C0 1.34 0 0.68 0 0 Z " fill="#2A2A27" transform="translate(40,25)"/>
<path d="M0 0 C0.66 0 1.32 0 2 0 C2.17015625 0.66386719 2.3403125 1.32773437 2.515625 2.01171875 C4.1144132 7.83709064 5.51522522 12.6353314 10.75 16.1875 C14.10916859 17.4005331 17.52201508 18.18847019 21 19 C21 19.66 21 20.32 21 21 C14.8590522 20.72706899 10.75942013 20.02720165 6 16 C6 15.34 6 14.68 6 14 C5.01 13.67 4.02 13.34 3 13 C0.71418851 8.97396166 -0.43355981 4.62463797 0 0 Z " fill="#2F2C26" transform="translate(21,44)"/>
<path d="M0 0 C4.55555556 0.55555556 4.55555556 0.55555556 6 2 C6.125 4.5 6.125 4.5 6 7 C5 8 5 8 2 8.125 C-1 8 -1 8 -2 7 C-2.1875 4.5625 -2.1875 4.5625 -2 2 C-1.34 1.34 -0.68 0.68 0 0 Z " fill="#F06804" transform="translate(60,85)"/>
<path d="M0 0 C4.55555556 0.55555556 4.55555556 0.55555556 6 2 C6.125 4.5 6.125 4.5 6 7 C5 8 5 8 1.9375 8.0625 C0.968125 8.041875 -0.00125 8.02125 -1 8 C-1.625 5.125 -1.625 5.125 -2 2 C-1.34 1.34 -0.68 0.68 0 0 Z " fill="#F26802" transform="translate(39,85)"/>
<path d="M0 0 C0.66 0 1.32 0 2 0 C3.94945506 7.51932666 4.92031564 14.31873744 3 22 C2.01 22 1.02 22 0 22 C0 14.74 0 7.48 0 0 Z " fill="#423123" transform="translate(70,32)"/>
<path d="M0 0 C2.625 0.375 2.625 0.375 5 1 C5.625 3.375 5.625 3.375 6 6 C4 8 4 8 1.4375 8.1875 C-1 8 -1 8 -2 7 C-2.1875 4.5625 -2.1875 4.5625 -2 2 C-1.34 1.34 -0.68 0.68 0 0 Z " fill="#F76901" transform="translate(18,85)"/>
<path d="M0 0 C5.27216362 0.41350303 8.27385398 1.17034992 12 5 C14.27299063 8.76219139 15 10.55132735 15 15 C14.01 14.67 13.02 14.34 12 14 C11 11 11 11 10 8 C7.16257631 4.35188383 4.41391016 3.20379368 0 2 C0 1.34 0 0.68 0 0 Z " fill="#332D26" transform="translate(40,31)"/>
<path d="M0 0 C2.475 0.495 2.475 0.495 5 1 C4.67 13.87 4.34 26.74 4 40 C3.67 40 3.34 40 3 40 C2.67 27.79 2.34 15.58 2 3 C1.34 2.67 0.68 2.34 0 2 C0 1.34 0 0.68 0 0 Z " fill="#11222C" transform="translate(85,19)"/>
<path d="M0 0 C0.99 0 1.98 0 3 0 C3.2475 1.258125 3.495 2.51625 3.75 3.8125 C4.44529725 6.54540448 4.83154766 7.81349919 6.75 9.9375 C9.48231555 11.22776012 12.00872861 11.6600828 15 12 C15 12.66 15 13.32 15 14 C10.37390802 14.3227506 7.71973879 13.84450614 4 11 C4 10.34 4 9.68 4 9 C3.34 9 2.68 9 2 9 C1.34 6.03 0.68 3.06 0 0 Z " fill="#362E25" transform="translate(27,44)"/>
<path d="M0 0 C3.29627113 1.97776268 4.12764332 3.96076434 5.5 7.5 C5.5 8.49 5.5 9.48 5.5 10.5 C4.51 10.83 3.52 11.16 2.5 11.5 C2.29375 10.22125 2.0875 8.9425 1.875 7.625 C1.41516467 5.42186032 1.41516467 5.42186032 0.5 3.5 C-2.49428144 1.88852558 -2.49428144 1.88852558 -5.5 1.5 C-2.5 -0.5 -2.5 -0.5 0 0 Z " fill="#392F25" transform="translate(105.5,77.5)"/>
<path d="M0 0 C0 0.66 0 1.32 0 2 C-1.61992165 2.86375896 -3.24611861 3.71575854 -4.875 4.5625 C-6.23238281 5.27599609 -6.23238281 5.27599609 -7.6171875 6.00390625 C-8.40351562 6.33261719 -9.18984375 6.66132812 -10 7 C-12 6 -12 6 -13 4 C-11.2097939 3.32942113 -9.41778511 2.6636531 -7.625 2 C-6.62726562 1.62875 -5.62953125 1.2575 -4.6015625 0.875 C-2 0 -2 0 0 0 Z " fill="#3B2F24" transform="translate(60,70)"/>
<path d="M0 0 C0.99 0.33 1.98 0.66 3 1 C3 2.98 3 4.96 3 7 C3.66 7.33 4.32 7.66 5 8 C3.68 8 2.36 8 1 8 C0.67 5.36 0.34 2.72 0 0 Z " fill="#4B3421" transform="translate(81,11)"/>
<path d="M0 0 C0.33 0.66 0.66 1.32 1 2 C-3.18461538 6.92307692 -3.18461538 6.92307692 -7.3125 7.3125 C-8.199375 7.209375 -9.08625 7.10625 -10 7 C-9.46375 6.773125 -8.9275 6.54625 -8.375 6.3125 C-5.21499137 4.56617944 -2.7323017 2.3597151 0 0 Z " fill="#16242B" transform="translate(109,88)"/>
<path d="M0 0 C6.75 -0.125 6.75 -0.125 9 1 C9 1.66 9 2.32 9 3 C6.03 2.67 3.06 2.34 0 2 C0 1.34 0 0.68 0 0 Z " fill="#413123" transform="translate(33,62)"/>
<path d="M0 0 C4.875 4.625 4.875 4.625 6 8 C5.34 8.66 4.68 9.32 4 10 C3.32845067 8.71086513 2.66291141 7.41859796 2 6.125 C1.62875 5.40570312 1.2575 4.68640625 0.875 3.9453125 C0 2 0 2 0 0 Z " fill="#2D2B27" transform="translate(65,24)"/>
<path d="M0 0 C0.28875 0.61875 0.5775 1.2375 0.875 1.875 C2.63411124 5.19776568 4.68335854 6.45223399 8 8 C5.125 8.125 5.125 8.125 2 8 C0 6 0 6 -0.125 2.875 C-0.08375 1.92625 -0.0425 0.9775 0 0 Z " fill="#212729" transform="translate(14,87)"/>
<path d="M0 0 C2.64 1.65 5.28 3.3 8 5 C7.34 5.66 6.68 6.32 6 7 C3.5625 5.75 3.5625 5.75 1 4 C0.67 2.68 0.34 1.36 0 0 Z " fill="#242828" transform="translate(26,56)"/>
</svg>
